<?xml version="1.0" standalone="no"?>
<!DOCTYPE svg PUBLIC "-//W3C//DTD SVG 20010904//EN"
 "http://www.w3.org/TR/2001/REC-SVG-20010904/DTD/svg10.dtd">
<svg version="1.0" xmlns="http://www.w3.org/2000/svg"
 width="497.000000pt" height="551.000000pt" viewBox="0 0 497.000000 551.000000"
 preserveAspectRatio="xMidYMid meet" style="filter: invert(77%) sepia(95%) saturate(1745%) hue-rotate(306deg) brightness(89%) contrast(95%);">

<g transform="translate(0.000000,551.000000) scale(0.100000,-0.100000)"
fill="#000000" stroke="none">
<path d="M661 4984 c-72 -19 -124 -63 -158 -132 l-28 -57 -3 -1999 -2 -1999
23 -51 c29 -63 72 -107 134 -137 48 -24 48 -24 507 -27 255 -1 463 1 468 6 5
5 -9 21 -34 37 -174 114 -336 298 -406 462 l-22 52 2 1593 3 1593 1408 3 1407
2 0 -822 c1 -453 1 -1138 0 -1523 0 -385 0 -706 0 -712 0 -10 -65 -13 -276
-15 l-276 -3 -27 -80 c-30 -88 -45 -120 -98 -204 -78 -122 -193 -243 -325
-342 -26 -20 -45 -39 -41 -43 11 -11 1402 -7 1472 4 76 13 125 37 167 82 46
48 63 89 74 174 13 104 13 3839 0 3919 -14 84 -67 160 -140 200 l-55 30 -1860
2 c-1599 2 -1868 0 -1914 -13z"/>
<path d="M2467 3733 c-4 -191 -3 -351 1 -355 8 -8 696 -13 709 -5 4 3 7 163 5
356 l-3 351 -353 0 -353 0 -6 -347z"/>
<path d="M2468 2328 c-3 -757 -3 -763 -25 -809 -32 -70 -76 -113 -144 -144
-53 -24 -71 -27 -128 -23 -118 9 -220 78 -274 187 -34 68 -34 68 -41 257 -4
104 -11 192 -15 197 -4 4 -120 6 -257 5 l-249 -3 0 -280 c1 -319 9 -377 74
-511 40 -83 139 -221 187 -264 200 -173 381 -243 624 -243 162 0 266 21 415
87 258 114 475 394 531 683 11 58 14 229 14 845 l1 773 -355 3 -355 2 -3 -762z"/>
</g>
</svg>
